<svg width="40" height="24" viewBox="0 0 40 24" fill="none" xmlns="http://www.w3.org/2000/svg">
<g clip-path="url(#clip0_10001_1482)">
<path d="M16.2441 15.9086L17.5387 8.15844H19.6094L18.3138 15.9086H16.2441ZM25.7952 8.32551C25.3851 8.1685 24.7422 8 23.9394 8C21.8932 8 20.4519 9.05116 20.4396 10.5577C20.4281 11.6713 21.4686 12.2926 22.254 12.6633C23.0601 13.0433 23.3311 13.2855 23.3272 13.6247C23.322 14.1442 22.6835 14.3814 22.0882 14.3814C21.2595 14.3814 20.8192 14.264 20.1391 13.9747L19.8722 13.8516L19.5816 15.5865C20.0653 15.8029 20.9596 15.9903 21.8883 16C24.0651 16 25.4782 14.9608 25.4942 13.352C25.502 12.4703 24.9503 11.7995 23.7556 11.2463C23.0318 10.8878 22.5885 10.6485 22.5932 10.2855C22.5932 9.96332 22.9684 9.61884 23.7792 9.61884C24.4563 9.60812 24.9469 9.75876 25.3291 9.91577L25.5146 10.0052L25.7952 8.32551ZM31.124 8.15832H29.524C29.0283 8.15832 28.6573 8.29633 28.4397 8.80103L25.3643 15.9035H27.5388C27.5388 15.9035 27.8942 14.9486 27.9746 14.7389C28.2122 14.7389 30.3247 14.7422 30.6266 14.7422C30.6886 15.0135 30.8786 15.9035 30.8786 15.9035H32.8001L31.124 8.15808V8.15832ZM28.5853 13.1629C28.7566 12.7164 29.4104 10.9964 29.4104 10.9964C29.3982 11.017 29.5804 10.5477 29.6849 10.2567L29.8248 10.9249C29.8248 10.9249 30.2214 12.7749 30.3042 13.1628H28.5853V13.1629ZM14.4862 8.15832L12.4588 13.4436L12.2429 12.3696C11.8654 11.1314 10.6896 9.78999 9.375 9.11842L11.2288 15.8963L13.4197 15.8938L16.6798 8.15824L14.4862 8.1582" fill="#0E4595"/>
<path d="M10.5654 8.1582H7.22618L7.19971 8.31945C9.79762 8.96097 11.5166 10.5113 12.2303 12.3743L11.5042 8.81275C11.3789 8.32199 11.0153 8.1755 10.5655 8.1584" fill="#F2AE14"/>
<rect width="40" height="24" fill="white" style="mix-blend-mode:color"/>
</g>
<defs>
<clipPath id="clip0_10001_1482">
<rect width="40" height="24" fill="white"/>
</clipPath>
</defs>
</svg>
