<svg width="40" height="24" viewBox="0 0 40 24" fill="none" xmlns="http://www.w3.org/2000/svg">
<g clip-path="url(#clip0_10001_1683)">
<path d="M11.0256 5.5H28.9744C29.5408 5.5 30 5.96563 30 6.54V17.46C30 18.0344 29.5408 18.5 28.9744 18.5H11.0256C10.4592 18.5 10 18.0344 10 17.46V6.54C10 5.96563 10.4592 5.5 11.0256 5.5Z" fill="#2557D6"/>
<path d="M10.0128 11.628H10.9728L11.1893 11.1207H11.6739L11.8898 11.628H13.7787V11.2402L13.9474 11.6297H14.928L15.0966 11.2344V11.628H19.7909L19.7887 10.7953H19.8796C19.9431 10.7975 19.9617 10.8032 19.9617 10.9052V11.628H22.3896V11.4342C22.5855 11.5361 22.8901 11.628 23.2909 11.628H24.3123L24.5309 11.1207H25.0155L25.2293 11.628H27.1976V11.1462L27.4957 11.628H29.073V8.44275H27.512V8.81892L27.2935 8.44275H25.6917V8.81892L25.491 8.44275H23.3274C22.9652 8.44275 22.6469 8.49186 22.3897 8.62873V8.44275H20.8966V8.62873C20.733 8.48765 20.51 8.44275 20.262 8.44275H14.8072L14.4412 9.26541L14.0653 8.44275H12.3472V8.81892L12.1584 8.44275H10.6932L10.0127 9.95714V11.6279H10.0128L10.0128 11.628ZM16.0728 11.1686H15.4968L15.4947 9.37992L14.68 11.1685H14.1866L13.3697 9.37833V11.1685H12.2269L12.011 10.6591H10.8411L10.623 11.1685H10.0127L11.0189 8.88477H11.8538L12.8094 11.047V8.88477H13.7265L14.4618 10.434L15.1373 8.88477H16.0728L16.0728 11.1686ZM11.819 10.1852L11.4344 9.27472L11.052 10.1852H11.819ZM18.3651 11.1685H16.4881V8.88475H18.3651V9.36031H17.05V9.77197H18.3336V10.2401H17.05V10.6962H18.3651L18.3651 11.1685ZM21.0103 9.49983C21.0103 9.86393 20.7601 10.0521 20.6144 10.1085C20.7373 10.154 20.8424 10.2343 20.8923 10.3009C20.9717 10.4145 20.9854 10.5159 20.9854 10.7199V11.1685H20.4186L20.4165 10.8805C20.4165 10.7431 20.43 10.5455 20.3278 10.4356C20.2457 10.3553 20.1205 10.3378 19.9182 10.3378H19.3151V11.1685H18.7532V8.88475H20.0455C20.3327 8.88475 20.5443 8.89211 20.7259 8.99413C20.9037 9.09615 21.0103 9.24508 21.0103 9.49983ZM20.3 9.83892C20.2228 9.88447 20.1315 9.88598 20.0221 9.88598H19.3395V9.37872H20.0313C20.1292 9.37872 20.2314 9.38299 20.2978 9.41991C20.3707 9.45319 20.4158 9.52398 20.4158 9.6218C20.4158 9.72164 20.3729 9.80195 20.3 9.83892ZM21.9114 11.1685H21.3381V8.88475H21.9114V11.1685ZM28.5668 11.1685H27.7706L26.7056 9.45441V11.1685H25.5613L25.3426 10.6591H24.1754L23.9633 11.1685H23.3057C23.0326 11.1685 22.6868 11.1098 22.491 10.9159C22.2935 10.722 22.1908 10.4594 22.1908 10.0441C22.1908 9.70536 22.2522 9.39573 22.4937 9.15104C22.6753 8.96878 22.9598 8.88475 23.347 8.88475H23.891V9.37409H23.3584C23.1533 9.37409 23.0375 9.40373 22.926 9.50937C22.8303 9.60555 22.7645 9.78731 22.7645 10.0267C22.7645 10.2714 22.8146 10.4478 22.919 10.563C23.0055 10.6534 23.1627 10.6808 23.3106 10.6808H23.5629L24.3548 8.88483H25.1967L26.1481 11.0449V8.88485H27.0036L27.9913 10.4754V8.88485H28.5668V11.1685ZM25.1514 10.1852L24.7626 9.27475L24.3759 10.1852H25.1514ZM29.9986 14.8153C29.8621 15.0092 29.5962 15.1075 29.2361 15.1075H28.151V14.6176H29.2317C29.3389 14.6176 29.4139 14.6039 29.4591 14.5611C29.5018 14.5227 29.5259 14.4687 29.5255 14.4121C29.5255 14.3455 29.4983 14.2927 29.4569 14.261C29.4161 14.2261 29.3568 14.2103 29.2589 14.2103C28.7314 14.1929 28.0732 14.2261 28.0732 13.5033C28.0732 13.172 28.2896 12.8232 28.8793 12.8232H29.9985V12.3688H28.9586C28.6448 12.3688 28.4168 12.4418 28.2554 12.5553V12.3687H26.7173C26.4713 12.3687 26.1826 12.428 26.046 12.5553V12.3687H23.2994V12.5553C23.0808 12.4021 22.712 12.3687 22.5417 12.3687H20.73V12.5553C20.5571 12.3926 20.1725 12.3687 19.9381 12.3687H17.9104L17.4465 12.8566L17.0119 12.3687H13.9829V15.5561H16.9547L17.4328 15.0605L17.8832 15.5561L19.7151 15.5577V14.8079H19.8951C20.1381 14.8115 20.4248 14.802 20.6777 14.6958V15.556H22.1887V14.7252H22.2616C22.3546 14.7252 22.3637 14.729 22.3637 14.8192V15.5559H26.9537C27.2451 15.5559 27.5497 15.4834 27.7185 15.3519V15.5559H29.1744C29.4773 15.5559 29.7732 15.5146 29.9983 15.409L29.9984 14.8152L29.9986 14.8153ZM20.8976 13.5892C20.8976 14.2238 20.4103 14.3548 19.9191 14.3548H19.218V15.121H18.126L17.4341 14.3648L16.715 15.121H14.4893V12.8367H16.7492L17.4405 13.5854L18.1553 12.8367H19.9507C20.3965 12.8367 20.8976 12.9566 20.8976 13.5892ZM16.4304 14.6405H15.0489V14.186H16.2825V13.72H15.0489V13.3046H16.4576L17.0722 13.9703L16.4304 14.6405ZM18.6563 14.9021L17.7936 13.9716L18.6563 13.0707V14.9021ZM19.9321 13.8864H19.206V13.3046H19.9386C20.1415 13.3046 20.2823 13.385 20.2823 13.5847C20.2823 13.7823 20.148 13.8864 19.9321 13.8864ZM23.7362 12.8367H25.6115V13.3091H24.2958V13.7244H25.5794V14.1905H24.2958V14.6449L25.6115 14.647V15.121H23.7362L23.7362 12.8367ZM23.0152 14.0594C23.1403 14.1043 23.2425 14.1846 23.2904 14.2512C23.3698 14.3627 23.3813 14.4668 23.3835 14.6681V15.121H22.8194V14.8352C22.8194 14.6978 22.833 14.4943 22.7286 14.3881C22.6465 14.3062 22.5213 14.2867 22.3164 14.2867H21.7158V15.121H21.1512V12.8367H22.4485C22.733 12.8367 22.9401 12.8489 23.1246 12.9445C23.3019 13.0486 23.4134 13.1912 23.4134 13.4518C23.4134 13.8163 23.1631 14.0024 23.0152 14.0594ZM22.6976 13.7706C22.6225 13.814 22.5295 13.8177 22.4203 13.8177H21.7376V13.3047H22.4295C22.5295 13.3047 22.6297 13.3068 22.6976 13.346C22.7705 13.383 22.814 13.4538 22.814 13.5514C22.814 13.6491 22.7704 13.7279 22.6976 13.7706ZM27.7699 13.9162C27.8794 14.0261 27.938 14.165 27.938 14.4001C27.938 14.8915 27.6221 15.1209 27.0553 15.1209H25.9609V14.6311H27.0509C27.1575 14.6311 27.2331 14.6174 27.2804 14.5745C27.3191 14.5392 27.3468 14.4879 27.3468 14.4256C27.3468 14.359 27.3168 14.3062 27.2782 14.2745C27.2353 14.2396 27.176 14.2238 27.0782 14.2238C26.5527 14.2064 25.8946 14.2396 25.8946 13.5168C25.8946 13.1855 26.1089 12.8367 26.698 12.8367H27.8244V13.3229H26.7937C26.6916 13.3229 26.6251 13.3267 26.5686 13.3642C26.5071 13.4011 26.4843 13.456 26.4843 13.5285C26.4843 13.6146 26.5365 13.6733 26.6072 13.6986C26.6665 13.7187 26.7302 13.7245 26.8258 13.7245L27.1283 13.7325C27.4333 13.7396 27.6427 13.7909 27.7699 13.9162ZM29.9996 13.3046H28.9755C28.8733 13.3046 28.8053 13.3084 28.7482 13.3459C28.6889 13.3829 28.6661 13.4378 28.6661 13.5103C28.6661 13.5964 28.7161 13.655 28.7889 13.6804C28.8482 13.7005 28.9118 13.7063 29.0054 13.7063L29.31 13.7142C29.6172 13.7216 29.8223 13.7729 29.9474 13.8981C29.9703 13.9155 29.9839 13.9351 29.9995 13.9546V13.3046H29.9996Z" fill="white"/>
<rect width="40" height="24" fill="#F9FAFB" style="mix-blend-mode:color"/>
</g>
<defs>
<clipPath id="clip0_10001_1683">
<rect width="40" height="24" fill="white"/>
</clipPath>
</defs>
</svg>
