<svg width="40" height="24" viewBox="0 0 40 24" fill="none" xmlns="http://www.w3.org/2000/svg">
<g clip-path="url(#clip0_10001_1688)">
<path d="M29.1539 12.0609C29.1539 7.885 25.5357 4.99874 21.5713 5H18.1597C14.1481 4.99861 10.8462 7.88588 10.8462 12.0609C10.8462 15.8803 14.1482 19.0184 18.1597 18.9999H21.5713C25.5354 19.0183 29.1539 15.8793 29.1539 12.0609Z" fill="#0079BE"/>
<path d="M18.1854 5.59167C14.5197 5.59277 11.5494 8.46088 11.5481 12.0006C11.549 15.5398 14.5194 18.4075 18.1854 18.4088C21.8519 18.4077 24.8231 15.5398 24.8235 12.0006C24.823 8.4608 21.852 5.59293 18.1854 5.59167Z" fill="white"/>
<path d="M13.989 11.9831C13.9925 10.2534 15.1117 8.77838 16.6898 8.19226V15.7731C15.1117 15.1873 13.9925 13.713 13.989 11.9831ZM19.701 15.775V8.19247C21.2798 8.77721 22.4007 10.2531 22.4035 11.9836C22.4007 13.7146 21.2798 15.1894 19.701 15.7752V15.775Z" fill="#0079BE"/>
<rect width="40" height="24" fill="#F9FAFB" style="mix-blend-mode:color"/>
</g>
<defs>
<clipPath id="clip0_10001_1688">
<rect width="40" height="24" fill="white"/>
</clipPath>
</defs>
</svg>
