<svg width="40" height="24" viewBox="0 0 40 24" fill="none" xmlns="http://www.w3.org/2000/svg">
<g clip-path="url(#clip0_10001_1694)">
<path fill-rule="evenodd" clip-rule="evenodd" d="M25.3759 12.8238L24.8443 15.0786H25.028L24.9156 15.5429H24.7319L24.698 15.6877H24.0433L24.0771 15.5429H22.748L22.8515 15.1139L22.9871 15.1121L23.5295 12.8237L23.6365 12.3629H24.3055L24.252 12.5977C24.252 12.5977 24.4215 12.4688 24.5838 12.4282C24.7515 12.3823 25.7184 12.3682 25.7184 12.3682L25.6078 12.8237L25.3759 12.8238ZM24.1985 12.8238L24.0647 13.4012C24.0647 13.4012 24.2538 13.3129 24.3608 13.2829C24.4678 13.2546 24.632 13.244 24.632 13.244L24.7319 12.8238L24.1985 12.8238ZM23.9933 13.6872L23.8524 14.2858C23.8524 14.2858 24.0468 14.1816 24.1556 14.1551C24.2609 14.1251 24.425 14.1074 24.425 14.1074L24.5249 13.6872H23.9933ZM23.665 15.0838H24.1967L24.3162 14.5771H23.7828L23.665 15.0838Z" fill="white"/>
<path fill-rule="evenodd" clip-rule="evenodd" d="M25.7432 12.3678H26.455L26.4639 12.6291C26.4586 12.6715 26.4978 12.6945 26.5799 12.6962H26.7012L26.5941 13.1288H26.207C25.8752 13.1535 25.7485 13.0105 25.7574 12.8516L25.7432 12.3678Z" fill="white"/>
<path fill-rule="evenodd" clip-rule="evenodd" d="M25.8676 14.4251H25.1878L25.2788 14.0385H26.0549L26.1387 13.6853H25.3734L25.4769 13.251H27.6088L27.5035 13.6853H26.7899L26.7043 14.0385H27.4197L27.3287 14.4251H26.5544L26.4242 14.5876H26.74L26.8506 15.0767C26.8612 15.1244 26.8666 15.1544 26.8827 15.1756C26.8969 15.1932 26.9933 15.2021 27.0486 15.2021H27.1449L27.0308 15.677H26.7899C26.7525 15.677 26.6971 15.677 26.6186 15.6664C26.5473 15.6628 26.492 15.6205 26.4402 15.5958C26.3939 15.5764 26.3243 15.5216 26.3011 15.4316L26.1923 14.946L25.8765 15.4263C25.7712 15.5746 25.6285 15.6894 25.3716 15.6894H24.8774L24.9773 15.2674H25.1665C25.22 15.2674 25.2699 15.2479 25.302 15.2303C25.3377 15.2126 25.368 15.195 25.4037 15.1438L25.8676 14.4251Z" fill="white"/>
<path fill-rule="evenodd" clip-rule="evenodd" d="M18.3593 13.3676H20.1594L20.0559 13.7931H19.3316L19.2459 14.155H19.9774L19.8704 14.5947H19.1371L18.9962 15.1827C18.9783 15.248 19.1746 15.2568 19.2459 15.2568L19.6099 15.2074L19.4921 15.6912H18.6644C18.5966 15.6912 18.5484 15.6823 18.4752 15.6647C18.4039 15.6488 18.37 15.617 18.3343 15.5711C18.304 15.5234 18.254 15.4846 18.279 15.3822L18.4681 14.6018H18.0596L18.1666 14.1551H18.5787L18.6644 13.7931H18.2558L18.3593 13.3676Z" fill="white"/>
<path fill-rule="evenodd" clip-rule="evenodd" d="M19.5291 12.6045H20.2677L20.1606 13.0477H19.1527L19.0492 13.1413C19.0064 13.1872 18.9885 13.1695 18.9297 13.1995C18.8744 13.2278 18.7584 13.2861 18.6014 13.2861H18.2803L18.3837 12.8588H18.4783C18.5621 12.8588 18.6175 12.8517 18.6442 12.834C18.6745 12.8128 18.7084 12.7687 18.7441 12.6963L18.91 12.3608H19.6433L19.5291 12.6045Z" fill="white"/>
<path fill-rule="evenodd" clip-rule="evenodd" d="M20.5699 12.3647H21.2015L21.1265 12.679C21.1265 12.679 21.3139 12.5218 21.453 12.4689C21.5868 12.4159 21.899 12.37 21.899 12.37L22.9159 12.3629L22.6394 13.5071C22.593 13.7031 22.5341 13.8284 22.4931 13.8885C22.4574 13.9432 22.4182 13.9962 22.3308 14.0421C22.2487 14.088 22.1702 14.1127 22.0988 14.1233C22.0328 14.1269 21.9294 14.1286 21.7866 14.1303H20.809L20.5896 15.0344C20.5664 15.1244 20.5592 15.1668 20.5771 15.1897C20.5913 15.2127 20.627 15.2374 20.6734 15.2374L21.1016 15.1951L20.9874 15.6912H20.5004C20.3487 15.6912 20.2346 15.6894 20.1596 15.6824C20.0829 15.6771 20.0026 15.6824 19.9491 15.6418C19.9027 15.603 19.8314 15.5535 19.8296 15.5005C19.8314 15.4493 19.8475 15.3664 19.8706 15.2569L20.5699 12.3647ZM21.9757 13.5194H20.9481L20.8982 13.7242H21.7902C21.8937 13.7137 21.9169 13.7295 21.9222 13.7242L21.9757 13.5194ZM20.991 13.334C20.991 13.334 21.1801 13.1539 21.5226 13.0939C21.5993 13.078 22.0935 13.0833 22.0935 13.0833L22.1488 12.8397H21.1123L20.991 13.334Z" fill="white"/>
<path fill-rule="evenodd" clip-rule="evenodd" d="M22.5127 14.2116L22.4735 14.487C22.4503 14.57 22.4342 14.6353 22.3754 14.6918C22.3076 14.7483 22.2308 14.8084 22.0417 14.8084L21.6956 14.8225L21.7099 15.1332C21.7135 15.2215 21.7349 15.2127 21.751 15.225C21.7688 15.2409 21.7813 15.248 21.7973 15.2533L21.9097 15.248L22.238 15.2286L22.1309 15.6824H21.751C21.4816 15.6824 21.28 15.6771 21.214 15.6276C21.1462 15.5835 21.1355 15.5323 21.1319 15.4493L21.0784 14.2363H21.6903L21.6974 14.487H21.8437C21.8954 14.487 21.9276 14.4799 21.949 14.4658C21.965 14.4535 21.9757 14.434 21.9864 14.4022L22.031 14.2115L22.5127 14.2116Z" fill="white"/>
<path d="M13.7894 8.14817C13.7662 8.24705 13.3755 10.0339 13.3737 10.0339C13.2899 10.3976 13.2257 10.6554 13.0223 10.8232C12.8992 10.9167 12.7618 10.9644 12.6048 10.9644C12.3479 10.9644 12.1963 10.8391 12.1695 10.5972L12.1624 10.5159C12.1624 10.5159 12.2427 10.0321 12.2427 10.0304C12.2427 10.0304 12.6548 8.3989 12.7297 8.18349C12.7316 8.17293 12.7334 8.16581 12.7369 8.15876C11.9358 8.16758 11.7931 8.16056 11.7842 8.14465C11.7788 8.16234 11.7574 8.26472 11.7574 8.26472L11.3382 10.1028L11.2989 10.2582L11.2329 10.7684C11.2329 10.9168 11.2614 11.0439 11.3221 11.1445C11.513 11.4782 12.0607 11.5277 12.3676 11.5277C12.7654 11.5277 13.1365 11.4412 13.3898 11.2911C13.8269 11.0351 13.9428 10.6325 14.0427 10.2776L14.0891 10.0975C14.0891 10.0975 14.5155 8.40421 14.5869 8.1835C14.5887 8.17294 14.5922 8.16582 14.594 8.15877C14.0142 8.16582 13.8447 8.15873 13.7894 8.14817Z" fill="white"/>
<path d="M16.1267 11.5103C15.843 11.5051 15.7431 11.5051 15.4131 11.5209L15.397 11.4979C15.4273 11.3708 15.4594 11.249 15.488 11.1218L15.5272 10.9523C15.5896 10.684 15.6521 10.3767 15.6557 10.2814C15.6628 10.2267 15.6806 10.0836 15.5183 10.0836C15.4505 10.0836 15.3773 10.1172 15.3042 10.1507C15.2668 10.292 15.1829 10.6875 15.1454 10.8694C15.0634 11.2525 15.0562 11.2949 15.0205 11.482L14.9955 11.5103C14.703 11.505 14.6031 11.505 14.2677 11.5208L14.2534 11.4944C14.3069 11.2666 14.364 11.0388 14.4158 10.8111C14.5585 10.1984 14.5924 9.96177 14.6298 9.65101L14.6566 9.62805C14.9867 9.58746 15.0652 9.57508 15.422 9.50269L15.4505 9.53624L15.3952 9.73401C15.4559 9.69695 15.5165 9.66161 15.5772 9.62806C15.7431 9.55037 15.9304 9.52565 16.0339 9.52565C16.1873 9.52565 16.3568 9.56801 16.4282 9.74636C16.4995 9.90527 16.4513 10.0995 16.3621 10.4862L16.3193 10.6822C16.2248 11.1112 16.2123 11.1924 16.1606 11.482L16.1267 11.5103Z" fill="white"/>
<path d="M17.2863 11.5099C17.115 11.5063 17.0062 11.5046 16.8992 11.5063C16.7921 11.5099 16.6869 11.5116 16.5281 11.5204L16.5192 11.5063L16.5103 11.494C16.553 11.3298 16.5763 11.2733 16.5977 11.2168C16.6191 11.1585 16.6405 11.1002 16.678 10.9343C16.7261 10.7206 16.7582 10.5705 16.7796 10.4381C16.8028 10.311 16.8153 10.2033 16.8314 10.0761L16.8475 10.0673L16.8581 10.0568C17.0294 10.032 17.1364 10.0162 17.2488 9.99848C17.3576 9.9808 17.4718 9.96142 17.6484 9.92786L17.6538 9.94377L17.6609 9.95787C17.6252 10.0921 17.5949 10.2263 17.561 10.3622C17.5289 10.4929 17.4986 10.6288 17.4682 10.7613C17.4004 11.0455 17.379 11.1515 17.363 11.2239C17.3487 11.298 17.3451 11.3369 17.3202 11.4816L17.3041 11.4957L17.2863 11.5099Z" fill="white"/>
<path d="M19.8317 10.5407C19.9316 10.1081 19.8567 9.90679 19.7585 9.78319C19.6087 9.59604 19.35 9.53601 19.077 9.53601C18.9147 9.53601 18.5293 9.55369 18.2261 9.8291C18.0102 10.0286 17.9049 10.2988 17.8461 10.5601C17.7854 10.8232 17.714 11.3034 18.1547 11.4765C18.2921 11.533 18.4883 11.5506 18.6132 11.5506C18.9397 11.5506 19.2715 11.4623 19.5195 11.1975C19.7139 10.9874 19.8014 10.6731 19.8317 10.5407ZM19.0913 10.5089C19.0753 10.5813 19.011 10.8567 18.9218 10.9697C18.863 11.0545 18.7898 11.1057 18.7131 11.1057C18.6899 11.1057 18.549 11.1057 18.5454 10.8973C18.5454 10.7967 18.5633 10.6925 18.59 10.5777C18.665 10.2511 18.7541 9.97918 18.9772 9.97918C19.1556 9.97918 19.1662 10.1805 19.0913 10.5089Z" fill="white"/>
<path d="M26.0959 11.0036C26.0388 11.0866 25.8996 11.136 25.8229 11.136C25.7997 11.136 25.6606 11.136 25.657 10.933C25.6552 10.8323 25.6749 10.7281 25.7016 10.6134C25.7747 10.2938 25.8639 10.0201 26.0905 10.0201C26.235 10.0201 26.3064 10.1614 26.2868 10.3927C26.2743 10.4439 26.2671 10.4915 26.2529 10.5533C26.2279 10.6522 26.1994 10.7529 26.1744 10.8535C26.153 10.9118 26.128 10.9665 26.0959 11.0036ZM27.2234 9.5575C26.8666 9.62283 26.772 9.63519 26.4331 9.68109L26.4045 9.70406C26.4027 9.7323 26.3974 9.75879 26.3938 9.78528C26.3421 9.69876 26.269 9.62461 26.1476 9.58046C25.9942 9.52043 25.6392 9.59814 25.3359 9.87356C25.1183 10.0695 25.0184 10.3397 24.9541 10.5957C24.8953 10.8588 24.8239 11.3355 25.2645 11.505C25.4037 11.5633 25.5321 11.581 25.657 11.5739C25.7962 11.5669 25.9175 11.4962 26.0352 11.4009C26.0228 11.4415 26.0138 11.4821 26.0031 11.5227L26.0228 11.5492C26.3403 11.5333 26.4385 11.5333 26.781 11.5386L26.8131 11.5121C26.8613 11.2225 26.9112 10.94 27.0397 10.3821C27.1021 10.1155 27.1663 9.85238 27.2324 9.58752L27.2234 9.5575Z" fill="white"/>
<path d="M21.7685 11.5103C21.483 11.5051 21.3885 11.5051 21.0531 11.5209L21.0406 11.4979C21.071 11.3708 21.1031 11.249 21.1316 11.1218L21.1726 10.9523C21.2315 10.684 21.2939 10.3767 21.3011 10.2814C21.3047 10.2267 21.3225 10.0836 21.1601 10.0836C21.0941 10.0836 21.0192 10.1172 20.9461 10.1507C20.9086 10.292 20.8265 10.6875 20.7873 10.8694C20.7088 11.2525 20.7016 11.2949 20.666 11.482L20.6392 11.5103C20.3484 11.505 20.2485 11.505 19.9113 11.5208L19.8953 11.4944C19.9524 11.2666 20.0077 11.0388 20.0594 10.8111C20.2021 10.1984 20.2342 9.96177 20.2753 9.65101L20.302 9.62805C20.6303 9.58746 20.7088 9.57508 21.0656 9.50269L21.0941 9.53624L21.0406 9.73401C21.0977 9.69695 21.1584 9.66161 21.219 9.62806C21.3867 9.55037 21.5723 9.52565 21.6739 9.52565C21.8292 9.52565 22.0004 9.56801 22.0718 9.74636C22.1396 9.90527 22.095 10.0995 22.0058 10.4862L21.9612 10.6822C21.8684 11.1112 21.8541 11.1924 21.8024 11.482L21.7685 11.5103Z" fill="white"/>
<path d="M24.5429 9.19338C24.4911 9.41585 24.3466 9.60654 24.1575 9.69659C24.0005 9.77428 23.8132 9.78136 23.6152 9.78136H23.4867L23.4974 9.73014C23.4974 9.73014 23.7311 8.72371 23.7311 8.72724L23.7364 8.6778L23.7418 8.63545L23.8363 8.64428C23.8363 8.64428 24.318 8.68844 24.3287 8.69018C24.5178 8.76081 24.5982 8.95148 24.5429 9.19338ZM24.2342 8.14282L23.9987 8.14811C23.385 8.15516 23.1405 8.15172 23.0371 8.13928C23.0282 8.18345 23.0121 8.26288 23.0121 8.26288C23.0121 8.26288 22.7944 9.27109 22.7944 9.27285C22.7944 9.27285 22.2681 11.4181 22.2432 11.517C22.7766 11.5117 22.9978 11.51 23.0888 11.5206C23.1102 11.4218 23.2351 10.8214 23.2369 10.8214C23.2369 10.8214 23.3421 10.3818 23.3493 10.3659C23.3493 10.3659 23.3796 10.32 23.4153 10.3023H23.4652C23.9255 10.3023 24.4482 10.3023 24.8585 10.0039C25.1351 9.80087 25.3242 9.5007 25.4116 9.13344C25.4312 9.04339 25.449 8.93569 25.449 8.82798C25.449 8.69026 25.4205 8.549 25.3384 8.43953C25.1315 8.15173 24.7158 8.14811 24.2342 8.14282Z" fill="white"/>
<path d="M17.593 9.78294C17.7803 9.65758 17.8053 9.47571 17.6465 9.3839C17.486 9.29032 17.2059 9.32033 17.0168 9.44746C16.8259 9.57812 16.8062 9.75646 16.965 9.85003C17.1238 9.94185 17.4039 9.9136 17.593 9.78294Z" fill="white"/>
<path fill-rule="evenodd" clip-rule="evenodd" d="M29.5839 9.55363L29.5536 9.52185C29.2039 9.59248 29.1414 9.60484 28.8185 9.64545L28.7935 9.66841C28.7935 9.67546 28.7935 9.67896 28.7917 9.68431L28.7899 9.67904C28.549 10.2282 28.558 10.1099 28.3635 10.5407C28.3617 10.5213 28.3617 10.5072 28.3617 10.4877L28.3119 9.55363L28.2815 9.52185C27.9158 9.59248 27.9051 9.60484 27.5679 9.64545L27.5411 9.66841C27.5375 9.68074 27.5358 9.69314 27.534 9.70547L27.5377 9.71076C27.5787 9.9244 27.5698 9.87849 27.6126 10.2157C27.6305 10.3817 27.6572 10.5494 27.6768 10.7154C27.7107 10.9856 27.7303 11.1233 27.7696 11.54C27.5412 11.9161 27.4877 12.0573 27.2683 12.3857V12.3875L27.1131 12.6294C27.0952 12.6577 27.0792 12.6753 27.056 12.6806C27.0328 12.693 26.9989 12.6966 26.9543 12.6966H26.8366L26.7349 13.1362L27.1773 13.1292C27.4342 13.1274 27.5983 13.0038 27.6858 12.8449L27.9587 12.377L29.5839 9.55363Z" fill="white"/>
<path d="M13.1189 5H18.7636C19.5521 5 20.0409 5.63564 19.8572 6.41783L17.2293 17.5839C17.0438 18.3644 16.257 19 15.4703 19H9.82382C9.03707 19 8.54646 18.3644 8.73022 17.5839L11.3599 6.41783C11.5436 5.63564 12.3304 5 13.1189 5Z" fill="#E31435"/>
<path d="M18.2913 5H23.9359C24.7227 5 25.2151 5.63564 25.0278 6.41783L22.4017 17.5839C22.2161 18.3644 21.4276 19 20.6373 19H14.9944C14.2059 19 13.7171 18.3644 13.9026 17.5839L16.5287 6.41783C16.7124 5.63564 17.5028 5 18.2913 5Z" fill="#0F3F75"/>
<path d="M24.5345 5H30.1738C30.9623 5 31.4547 5.63564 31.2692 6.41783L28.6413 17.5839C28.4575 18.3644 27.669 19 26.8805 19H21.2341C20.4473 19 19.9549 18.3644 20.1404 17.5839L22.7683 6.41783C22.9521 5.63564 23.7424 5 24.5345 5Z" fill="#00737F"/>
<path fill-rule="evenodd" clip-rule="evenodd" d="M25.3759 13.244L24.8443 15.4952H25.028L24.9156 15.9631H24.7319L24.698 16.1061H24.0433L24.0771 15.9631H22.748L22.8515 15.5323L22.9871 15.5305L23.5295 13.2439L23.6365 12.7831H24.3055L24.252 13.0162C24.252 13.0162 24.4215 12.8873 24.5838 12.8449C24.7515 12.8025 25.7184 12.7848 25.7184 12.7848L25.6078 13.2439L25.3759 13.244ZM24.1985 13.244L24.0647 13.8196C24.0647 13.8196 24.2538 13.7313 24.3608 13.703C24.4678 13.6748 24.632 13.6607 24.632 13.6607L24.7319 13.244L24.1985 13.244ZM23.9933 14.1074L23.8524 14.7024C23.8524 14.7024 24.0468 14.6018 24.1556 14.5717C24.2609 14.5435 24.425 14.5258 24.425 14.5258L24.5249 14.1074H23.9933ZM23.665 15.5023H24.1967L24.3162 14.9955H23.7828L23.665 15.5023Z" fill="white"/>
<path fill-rule="evenodd" clip-rule="evenodd" d="M25.7432 12.7867H26.455L26.4639 13.0481C26.4586 13.0922 26.4978 13.1116 26.5799 13.1134H26.7012L26.5941 13.5478H26.207C25.8752 13.5707 25.7485 13.4295 25.7574 13.2705L25.7432 12.7867Z" fill="white"/>
<path fill-rule="evenodd" clip-rule="evenodd" d="M25.8676 14.8437H25.1878L25.2788 14.4588H26.0549L26.1387 14.1057H25.3734L25.4769 13.6696H27.6088L27.5035 14.1057H26.7899L26.7043 14.4588H27.4197L27.3287 14.8437H26.5544L26.4242 15.0079H26.7399L26.8506 15.4953C26.8612 15.5412 26.8666 15.5729 26.8827 15.5941C26.8969 15.61 26.9933 15.6189 27.0486 15.6189H27.1449L27.0307 16.0956H26.7899C26.7525 16.0956 26.6971 16.0938 26.6186 16.0868C26.5473 16.0832 26.492 16.0373 26.4402 16.0162C26.3938 15.995 26.3243 15.942 26.3011 15.8502L26.1923 15.3646L25.8765 15.8431C25.7712 15.9949 25.6285 16.1079 25.3716 16.1079H24.8774L24.9773 15.6877H25.1665C25.22 15.6877 25.2699 15.6648 25.302 15.6471C25.3377 15.6312 25.368 15.6136 25.4037 15.5641L25.8676 14.8437Z" fill="white"/>
<path fill-rule="evenodd" clip-rule="evenodd" d="M18.3593 13.7879H20.1594L20.0559 14.2116H19.3316L19.2459 14.5753H19.9774L19.8704 15.0132H19.1371L18.9962 15.5994C18.9783 15.6648 19.1746 15.6771 19.2459 15.6771L19.6099 15.6259L19.4921 16.1079H18.6644C18.5966 16.1079 18.5484 16.1027 18.4752 16.085C18.4039 16.0673 18.37 16.0356 18.3343 15.9896C18.304 15.9437 18.254 15.9014 18.279 15.8007L18.4681 15.0203H18.0596L18.1666 14.5753H18.5787L18.6644 14.2116H18.2558L18.3593 13.7879Z" fill="white"/>
<path fill-rule="evenodd" clip-rule="evenodd" d="M19.5291 13.0228H20.2677L20.1606 13.466H19.1527L19.0492 13.5613C19.0064 13.6055 18.9885 13.5878 18.9297 13.6178C18.8744 13.6478 18.7584 13.7026 18.6014 13.7026H18.2803L18.3837 13.277H18.4783C18.5621 13.277 18.6175 13.2682 18.6442 13.2506C18.6745 13.2329 18.7084 13.187 18.7441 13.1128L18.91 12.7809H19.6433L19.5291 13.0228Z" fill="white"/>
<path fill-rule="evenodd" clip-rule="evenodd" d="M20.5699 12.7831H21.2015L21.1265 13.0991C21.1265 13.0991 21.3139 12.9402 21.453 12.8873C21.5868 12.8343 21.899 12.7884 21.899 12.7884L22.9159 12.7831L22.6394 13.9255C22.593 14.1232 22.5341 14.2486 22.4931 14.3051C22.4574 14.3634 22.4182 14.4128 22.3308 14.4623C22.2487 14.5064 22.1702 14.5329 22.0988 14.5399C22.0328 14.547 21.9294 14.547 21.7866 14.5488H20.809L20.5896 15.4528C20.5664 15.5428 20.5592 15.5852 20.5771 15.6099C20.5913 15.6294 20.627 15.6541 20.6734 15.6541L21.1016 15.6135L20.9874 16.1114H20.5004C20.3487 16.1114 20.2346 16.1078 20.1596 16.1009C20.0829 16.0956 20.0026 16.1009 19.9491 16.0603C19.9027 16.0197 19.8314 15.9702 19.8296 15.9173C19.8314 15.8678 19.8475 15.7866 19.8706 15.6771L20.5699 12.7831ZM21.9757 13.9396H20.9481L20.8982 14.1444H21.7902C21.8937 14.1339 21.9169 14.1462 21.9222 14.1426L21.9757 13.9396ZM20.991 13.7542C20.991 13.7542 21.1801 13.5706 21.5226 13.5105C21.5993 13.4982 22.0935 13.5017 22.0935 13.5017L22.1488 13.2581H21.1123L20.991 13.7542Z" fill="white"/>
<path fill-rule="evenodd" clip-rule="evenodd" d="M22.5127 14.6282L22.4735 14.9036C22.4503 14.9884 22.4342 15.0537 22.3754 15.112C22.3076 15.1685 22.2308 15.2285 22.0417 15.2285L21.6956 15.2408L21.7099 15.5498C21.7135 15.6416 21.7349 15.631 21.751 15.6452C21.7688 15.6611 21.7813 15.6664 21.7973 15.6717L21.9097 15.6664L22.238 15.647L22.1309 16.1025H21.751C21.4816 16.1025 21.28 16.0937 21.214 16.0443C21.1462 16.0001 21.1355 15.9524 21.1319 15.8677L21.0784 14.6564H21.6903L21.6974 14.9036H21.8437C21.8954 14.9036 21.9276 14.9 21.949 14.886C21.965 14.8718 21.9757 14.8524 21.9864 14.8224L22.031 14.6282H22.5127Z" fill="white"/>
<path d="M13.7894 8.56482C13.7662 8.66723 13.3755 10.4523 13.3737 10.4541C13.2899 10.8143 13.2257 11.0738 13.0223 11.2398C12.8992 11.3369 12.7618 11.3828 12.6048 11.3828C12.3479 11.3828 12.1963 11.2575 12.1695 11.0173L12.1624 10.9343C12.1624 10.9343 12.2427 10.4523 12.2427 10.4506C12.2427 10.4506 12.6548 8.81908 12.7297 8.6019C12.7316 8.58957 12.7334 8.58249 12.7369 8.57544C11.9358 8.58599 11.7931 8.57904 11.7842 8.56483C11.7788 8.58251 11.7574 8.6849 11.7574 8.6849L11.3382 10.5212L11.2989 10.6766L11.2329 11.1851C11.2329 11.3369 11.2614 11.4605 11.3221 11.5647C11.513 11.8949 12.0607 11.9443 12.3676 11.9443C12.7654 11.9443 13.1365 11.8596 13.3898 11.7095C13.8269 11.4517 13.9428 11.0509 14.0427 10.6978L14.0891 10.5141C14.0891 10.5141 14.5155 8.82086 14.5869 8.60191C14.5887 8.58958 14.5922 8.58246 14.594 8.57541C14.0142 8.58424 13.8447 8.57899 13.7894 8.56482Z" fill="white"/>
<path d="M16.1267 11.9264C15.843 11.9228 15.7431 11.9228 15.4131 11.937L15.397 11.9158C15.4273 11.7887 15.4594 11.6651 15.488 11.5397L15.5272 11.3702C15.5896 11.1036 15.6521 10.7963 15.6557 10.701C15.6628 10.6445 15.6806 10.5032 15.5183 10.5032C15.4505 10.5032 15.3773 10.535 15.3042 10.5686C15.2668 10.7081 15.1829 11.1071 15.1454 11.2872C15.0634 11.6704 15.0562 11.7145 15.0205 11.9017L14.9955 11.9264C14.703 11.9228 14.6031 11.9228 14.2677 11.9369L14.2534 11.9122C14.3069 11.6827 14.364 11.4567 14.4158 11.2289C14.5585 10.6145 14.5924 10.3814 14.6298 10.0689L14.6566 10.0477C14.9867 10.0035 15.0652 9.99293 15.422 9.92053L15.4505 9.95233L15.3952 10.1518C15.4559 10.1166 15.5165 10.0812 15.5772 10.0477C15.7431 9.96822 15.9304 9.94172 16.0339 9.94172C16.1873 9.94172 16.3568 9.98589 16.4282 10.1624C16.4995 10.3213 16.4513 10.5173 16.3621 10.904L16.3193 11.0982C16.2248 11.5291 16.2123 11.6085 16.1606 11.9016L16.1267 11.9264Z" fill="white"/>
<path d="M17.2863 11.9264C17.115 11.9228 17.0062 11.9228 16.8992 11.9264C16.7921 11.9264 16.6869 11.9301 16.5281 11.937L16.5192 11.9229L16.5103 11.9123C16.553 11.7499 16.5763 11.6916 16.5977 11.6351C16.6191 11.5769 16.6405 11.5204 16.678 11.3544C16.7261 11.1407 16.7582 10.9871 16.7796 10.8582C16.8028 10.7276 16.8153 10.6216 16.8314 10.4963L16.8475 10.4857L16.8581 10.4734C17.0294 10.4522 17.1364 10.4363 17.2488 10.4169C17.3576 10.401 17.4718 10.3816 17.6484 10.348L17.6538 10.3621L17.6609 10.3762C17.6252 10.5104 17.5949 10.6446 17.561 10.7788C17.5289 10.913 17.4986 11.0472 17.4682 11.1796C17.4004 11.4621 17.379 11.5698 17.363 11.644C17.3487 11.7164 17.3451 11.7535 17.3202 11.9018L17.3041 11.9159L17.2863 11.9264Z" fill="white"/>
<path d="M19.8317 10.9592C19.9316 10.5266 19.8567 10.3235 19.7585 10.2035C19.6087 10.0146 19.35 9.95276 19.077 9.95276C18.9147 9.95276 18.5293 9.97044 18.2261 10.2494C18.0102 10.4471 17.9049 10.7191 17.8461 10.9768C17.7854 11.2417 17.714 11.722 18.1547 11.895C18.2921 11.9533 18.4883 11.9709 18.6132 11.9709C18.9397 11.9709 19.2715 11.8809 19.5195 11.616C19.7139 11.4077 19.8014 11.0899 19.8317 10.9592ZM19.0913 10.9292C19.0753 10.9998 19.011 11.2735 18.9218 11.3882C18.863 11.4712 18.7898 11.5224 18.7131 11.5224C18.6899 11.5224 18.549 11.5224 18.5454 11.3176C18.5454 11.2152 18.5633 11.111 18.59 10.998C18.665 10.6732 18.7541 10.3977 18.9772 10.3977C19.1556 10.3977 19.1662 10.599 19.0913 10.9292Z" fill="white"/>
<path d="M26.0959 11.4232C26.0388 11.5044 25.8996 11.5556 25.8229 11.5556C25.7997 11.5556 25.6606 11.5556 25.657 11.3526C25.6552 11.2502 25.6749 11.146 25.7016 11.033C25.7747 10.7099 25.8639 10.4379 26.0905 10.4379C26.235 10.4379 26.3064 10.5792 26.2868 10.8105C26.2743 10.8617 26.2671 10.9094 26.2529 10.9694C26.2279 11.0718 26.1994 11.1707 26.1744 11.2696C26.153 11.3296 26.128 11.3861 26.0959 11.4232ZM27.2234 9.97534C26.8666 10.0389 26.772 10.0548 26.4331 10.1007L26.4045 10.1219C26.4027 10.1501 26.3974 10.1749 26.3938 10.2049C26.3421 10.1184 26.269 10.0442 26.1476 9.99654C25.9942 9.94004 25.6392 10.0142 25.3359 10.2914C25.1183 10.4892 25.0184 10.7558 24.9541 11.0153C24.8953 11.2749 24.8239 11.7534 25.2645 11.9229C25.4037 11.9812 25.5321 11.9988 25.657 11.9917C25.7962 11.9865 25.9175 11.9158 26.0352 11.8169C26.0228 11.8575 26.0138 11.8999 26.0031 11.9405L26.0228 11.9653C26.3403 11.9529 26.4385 11.9529 26.781 11.9565L26.8131 11.93C26.8613 11.6404 26.9112 11.3561 27.0397 10.7982C27.1021 10.5333 27.1663 10.2685 27.2324 10.0036L27.2234 9.97534Z" fill="white"/>
<path d="M21.7685 11.9264C21.483 11.9228 21.3885 11.9228 21.0531 11.937L21.0406 11.9158C21.071 11.7887 21.1031 11.6651 21.1316 11.5397L21.1726 11.3702C21.2315 11.1036 21.2939 10.7963 21.3011 10.701C21.3047 10.6445 21.3225 10.5032 21.1601 10.5032C21.0941 10.5032 21.0192 10.535 20.9461 10.5686C20.9086 10.7081 20.8265 11.1071 20.7873 11.2872C20.7088 11.6704 20.7016 11.7145 20.666 11.9017L20.6392 11.9264C20.3484 11.9228 20.2485 11.9228 19.9113 11.9369L19.8953 11.9122C19.9524 11.6827 20.0077 11.4567 20.0594 11.2289C20.2021 10.6145 20.2342 10.3814 20.2753 10.0689L20.302 10.0477C20.6303 10.0035 20.7088 9.99293 21.0656 9.92053L21.0941 9.95233L21.0406 10.1518C21.0977 10.1166 21.1584 10.0812 21.219 10.0477C21.3867 9.96822 21.5723 9.94172 21.6739 9.94172C21.8292 9.94172 22.0004 9.98589 22.0718 10.1624C22.1396 10.3213 22.095 10.5173 22.0058 10.904L21.9612 11.0982C21.8684 11.5291 21.8541 11.6085 21.8024 11.9016L21.7685 11.9264Z" fill="white"/>
<path d="M24.5429 9.61373C24.4911 9.83621 24.3466 10.0234 24.1575 10.1169C24.0005 10.1929 23.8132 10.1999 23.6152 10.1999H23.4867L23.4974 10.1505C23.4974 10.1505 23.7311 9.14407 23.7311 9.14584L23.7364 9.09463L23.7418 9.0558L23.8363 9.06285C23.8363 9.06285 24.318 9.10521 24.3287 9.10876C24.5178 9.18116 24.5982 9.3683 24.5429 9.61373ZM24.2342 8.5614L23.9987 8.56668C23.385 8.57373 23.1405 8.57196 23.0371 8.55786C23.0282 8.60202 23.0121 8.68146 23.0121 8.68146L22.7944 9.69142C22.7944 9.69142 22.2681 11.8349 22.2432 11.9374C22.7766 11.9285 22.9978 11.9285 23.0888 11.9392C23.1102 11.8385 23.2351 11.24 23.2369 11.2382C23.2369 11.2382 23.3421 10.7985 23.3493 10.7862C23.3493 10.7862 23.3796 10.7385 23.4153 10.7209H23.4652C23.9255 10.7209 24.4482 10.7208 24.8585 10.4207C25.1351 10.2212 25.3242 9.91747 25.4116 9.55198C25.4312 9.46193 25.449 9.35599 25.449 9.24652C25.449 9.10879 25.4205 8.96931 25.3384 8.8563C25.1315 8.5685 24.7158 8.5667 24.2342 8.5614Z" fill="white"/>
<path d="M17.593 10.2037C17.7803 10.0748 17.8053 9.89643 17.6465 9.80108C17.486 9.71104 17.2059 9.73928 17.0168 9.86818C16.8259 9.9953 16.8062 10.1754 16.965 10.269C17.1238 10.3626 17.4039 10.3325 17.593 10.2037Z" fill="white"/>
<path fill-rule="evenodd" clip-rule="evenodd" d="M29.584 9.97439L29.5537 9.94087C29.204 10.0133 29.1416 10.0239 28.8187 10.0662L28.7937 10.0874C28.7937 10.0927 28.7937 10.0998 28.7918 10.1033L28.79 10.0997C28.5492 10.6488 28.5581 10.5288 28.3636 10.9596C28.3618 10.9401 28.3618 10.9243 28.3618 10.9066L28.3119 9.97435L28.2815 9.9408C27.9158 10.0132 27.9051 10.0238 27.5679 10.0662L27.5411 10.0873C27.5375 10.1014 27.5358 10.1121 27.534 10.1262L27.5377 10.1298C27.5787 10.3452 27.5698 10.2975 27.6126 10.6348C27.6305 10.799 27.6572 10.9685 27.6768 11.1327C27.7107 11.4064 27.7303 11.5423 27.7696 11.9573C27.5412 12.3351 27.4877 12.4764 27.2683 12.8048L27.1131 13.0502C27.0952 13.0767 27.0792 13.0926 27.056 13.1014C27.0328 13.112 26.9989 13.1173 26.9543 13.1173H26.8366L26.7349 13.5552L27.1773 13.5482C27.4342 13.5464 27.5983 13.421 27.6858 13.2621L27.9587 12.7942L29.584 9.97439Z" fill="white"/>
<rect width="40" height="24" fill="#F9FAFB" style="mix-blend-mode:color"/>
</g>
<defs>
<clipPath id="clip0_10001_1694">
<rect width="40" height="24" fill="white"/>
</clipPath>
</defs>
</svg>
